<svg width="100" height="100" viewBox="0 0 100 100" fill="none" xmlns="http://www.w3.org/2000/svg">
<path d="M39.5114 0C38.7414 0 38.0521 0.166437 37.4469 0.502673C34.8293 1.02048 33.1515 2.68148 31.9124 3.90706C31.0886 4.72244 30.3775 5.42685 29.7622 5.42685H29.7605C28.9704 5.37642 28.2458 5.34616 27.5783 5.34616C23.019 5.34616 20.6367 6.93487 18.4781 11.4186C18.4075 11.5632 18.3302 11.6556 18.2579 11.7683H19.5625C25.1255 11.7683 29.6496 16.2923 29.6496 21.8554C29.6496 22.785 28.8964 23.5365 27.9684 23.5365C27.0404 23.5365 26.2872 22.785 26.2872 21.8554C26.2872 18.1467 23.2712 15.1306 19.5625 15.1306H11.6256C7.54203 18.1534 5.0253 23.5887 5.3565 29.0626C5.51789 31.7323 4.79162 36.1151 3.49039 38.1376C0.284373 43.1273 0.284373 50.0975 3.49039 55.0873C3.98633 55.8572 4.7126 56.7533 5.55319 57.7923C7.05281 59.6449 9.56449 62.7434 9.47875 64.1623C9.09712 70.4432 12.9302 77.6806 18.0225 80.2949C18.9388 80.7656 19.0934 81.2414 19.4397 82.6822C19.4784 82.8385 19.5204 83.0083 19.5625 83.1798V81.0766C19.5625 74.589 24.8414 69.3084 31.3307 69.3084C32.2588 69.3084 33.0119 70.0599 33.0119 70.9895C33.0119 71.9192 32.2588 72.6707 31.3307 72.6707C26.6957 72.6707 22.9248 76.4416 22.9248 81.0766V88.5713C23.8226 89.1917 24.7422 89.5447 25.5206 89.8406C27.0942 90.4374 27.7448 90.6863 27.9835 92.4112C28.6392 97.1622 31.4535 100 35.5118 100C41.4868 100 48.1426 93.6082 48.1426 84.439V22.2353C48.1426 23.165 47.3894 23.9165 46.4614 23.9165C40.8983 23.9165 36.3743 28.4405 36.3743 34.0036C36.3743 41.4193 30.3405 47.453 22.9248 47.453C21.9968 47.453 21.2437 46.7015 21.2437 45.7718C21.2437 44.8421 21.9968 44.0907 22.9248 44.0907C28.4879 44.0907 33.0119 39.5666 33.0119 34.0036C33.0119 26.5879 39.0457 20.5541 46.4614 20.5541C47.3894 20.5541 48.1426 21.3056 48.1426 22.2353V7.10467C48.1442 3.74399 42.9981 0 39.5114 0ZM34.6948 55.4521C34.6948 52.2007 35.9624 49.1426 38.2639 46.8427C38.9213 46.1854 39.9838 46.1854 40.6411 46.8427C41.2985 47.5001 41.2985 48.5626 40.6411 49.2199C38.9751 50.886 38.0571 53.1001 38.0571 55.4521C38.0571 57.804 38.9751 60.0182 40.6411 61.6842C41.2985 62.3416 41.2985 63.4041 40.6411 64.0614C38.9751 65.7274 38.0571 67.9416 38.0571 70.2935C38.0571 72.6455 38.9751 74.8596 40.6411 76.5257C41.2985 77.183 41.2985 78.2455 40.6411 78.9029C40.3133 79.2307 39.8829 79.3955 39.4525 79.3955C39.0221 79.3955 38.5918 79.2307 38.2639 78.9029C35.9624 76.603 34.6948 73.5433 34.6948 70.2935C34.6948 67.5734 35.5942 64.9945 37.2334 62.8728C35.5925 60.7545 34.6948 58.1739 34.6948 55.4521ZM22.6659 59.65C22.6659 59.6517 22.6659 59.6517 22.6659 59.65C22.012 61.427 22.9248 63.4057 24.7002 64.0597C25.571 64.3825 26.0165 65.3492 25.6937 66.22C25.4432 66.8976 24.801 67.3178 24.1168 67.3178C23.9235 67.3178 23.7268 67.2842 23.5334 67.2136C20.0198 65.9141 18.2158 62.0003 19.5104 58.4866C19.5104 58.4849 19.5104 58.4832 19.5104 58.4832C20.166 56.7079 19.2531 54.7292 17.4761 54.0735C16.6053 53.7524 16.1598 52.784 16.4826 51.9132C16.8037 51.0423 17.7754 50.6002 18.6429 50.9179C22.1599 52.2208 23.9638 56.1363 22.6659 59.65ZM25.729 33.8876C24.717 36.6296 22.1111 38.3309 19.3456 38.3309C18.5655 38.3309 17.7737 38.1947 17.0004 37.9106C15.22 37.2499 13.2463 38.1662 12.5889 39.9432C12.3384 40.6207 11.6962 41.041 11.012 41.041C10.8187 41.041 10.622 41.0074 10.4303 40.9368C9.55945 40.6157 9.11394 39.6473 9.43504 38.7764C10.7312 35.2628 14.6501 33.4639 18.1637 34.7534C19.9374 35.4107 21.9178 34.4995 22.5751 32.7208C22.8963 31.85 23.8663 31.4061 24.7355 31.7256C25.6063 32.0484 26.0518 33.0167 25.729 33.8876Z" fill="#F25C3A"/>
<path d="M96.5095 37.7576C95.21 35.7369 94.482 31.3507 94.6451 28.6826C94.9763 23.207 92.4596 17.7734 88.376 14.7507H80.4374C77.6568 14.7507 75.3939 17.0136 75.3939 19.7942C75.3939 20.7239 74.6407 21.4754 73.7127 21.4754C72.7847 21.4754 72.0315 20.7239 72.0315 19.7942C72.0315 15.1592 75.8024 11.3883 80.4374 11.3883H81.742C81.6697 11.2757 81.5924 11.1832 81.5235 11.0403C79.3665 6.55661 76.9843 4.96789 72.4249 4.96789C71.7575 4.96789 71.0329 4.99815 70.2058 5.05027C69.7334 5.05027 68.9987 4.26179 68.2859 3.5019C67.0401 2.1704 65.3757 0.388353 62.738 0.0857402L61.889 0C56.452 0 51.8574 3.07992 51.8574 6.72472V84.0591C51.8574 93.2282 58.5132 99.6184 64.4881 99.6201C64.4881 99.6201 64.4881 99.6201 64.4898 99.6201C68.5464 99.6201 71.3591 96.7822 72.0164 92.0312C72.2551 90.3063 72.9057 90.0575 74.4793 89.4607C75.2577 89.1648 76.1773 88.8117 77.0751 88.1914V80.6967C77.0751 76.0617 73.3042 72.2908 68.6692 72.2908C67.7412 72.2908 66.988 71.5393 66.988 70.6096C66.988 69.6799 67.7412 68.9284 68.6692 68.9284C75.1585 68.9284 80.4374 74.209 80.4374 80.6967V82.8015C80.4811 82.63 80.5232 82.4603 80.5618 82.3022C80.9098 80.8631 81.0628 80.384 81.9791 79.9149C87.0697 77.3007 90.9028 70.0666 90.5228 63.7823C90.5077 63.5201 90.6035 63.1855 90.7431 62.8257L85.7248 57.0038C83.8805 53.9441 80.6476 52.1166 77.0751 52.1166C69.6594 52.1166 63.6256 46.0829 63.6256 38.6672C63.6256 37.7375 64.3788 36.986 65.3068 36.986C66.2348 36.986 66.988 37.7375 66.988 38.6672C66.988 44.2302 71.512 48.7542 77.0751 48.7542C81.7874 48.7542 86.0576 51.1398 88.5273 55.1444L92.5604 59.8181C93.206 58.9439 93.8953 58.0932 94.4467 57.4106C95.2873 56.3734 96.0136 55.4773 96.5095 54.7073C99.7155 49.7176 99.7155 42.7474 96.5095 37.7576ZM64.0039 52.0813C68.4389 56.5179 68.4389 63.7369 64.0039 68.1719C62.4892 69.6866 61.6536 71.7007 61.6536 73.8391C61.6536 75.9776 62.4892 77.9917 64.0039 79.5064C64.6612 80.1637 64.6612 81.2263 64.0039 81.8836C63.6761 82.2131 63.2457 82.3779 62.8153 82.3779C62.3849 82.3779 61.9545 82.2131 61.6267 81.8853C59.4765 79.7351 58.2912 76.877 58.2912 73.8408C58.2912 70.8046 59.4765 67.9466 61.6267 65.7964C64.7503 62.6711 64.7503 57.5855 61.6267 54.4602C60.9694 53.8028 60.9694 52.7403 61.6267 52.083C62.284 51.4256 63.3482 51.4256 64.0039 52.0813ZM84.0705 39.4069C83.4081 39.5212 82.7491 39.58 82.0984 39.58C76.6783 39.58 71.8651 35.6847 70.8951 30.1671C70.5235 28.0572 69.3551 26.218 67.6033 24.9891C65.8498 23.7618 63.7248 23.2844 61.6133 23.6609C60.697 23.8122 59.8262 23.2087 59.6664 22.2941C59.5051 21.3796 60.117 20.507 61.0316 20.3473C64.0291 19.8245 67.0468 20.4936 69.5333 22.237C72.0198 23.9804 73.6791 26.5912 74.2053 29.5854C74.9686 33.938 79.1362 36.8633 83.4871 36.0933C84.4067 35.9336 85.2742 36.5455 85.4339 37.4601C85.597 38.3746 84.985 39.2472 84.0705 39.4069Z" fill="#F25C3A"/>
</svg>
