<svg width="150" height="20" viewBox="0 0 150 20" fill="none" xmlns="http://www.w3.org/2000/svg">
<path fill-rule="evenodd" clip-rule="evenodd" d="M36.637 0.0288086C31.3532 0.0288086 27.0759 4.31376 27.0759 9.60695C27.0759 14.9001 31.3532 19.1851 36.637 19.1851C41.9207 19.1851 46.1981 14.9001 46.1981 9.60695C46.1981 4.31376 41.9207 0.0288086 36.637 0.0288086ZM36.637 15.6563C33.2822 15.6563 30.5984 12.9397 30.5984 9.60695C30.5984 6.2742 33.3102 3.55759 36.637 3.55759C39.9918 3.55759 42.6756 6.2742 42.6756 9.60695C42.6756 12.9397 39.9638 15.6563 36.637 15.6563ZM23.2738 0.196839L18.8567 12.7717L14.6074 0.0288086H12.6225L8.12149 12.7717L4.01191 0.196839H0.181885L6.72367 19.1011H9.2677L13.545 6.94635L17.6267 19.1011H20.1707L27.1039 0.196839H23.2738ZM52.6001 0.196839H48.9937V18.681H58.3032V15.5723H52.6001V0.196839ZM72.7007 3.30553L73.2319 0.196839H60.7913V18.681H64.3977V10.5312H71.2749L71.8061 7.42248H64.3977V3.30553H72.7007Z" fill="#927398"/>
<path fill-rule="evenodd" clip-rule="evenodd" d="M119.08 2.21331C117.039 0.700973 114.803 0.420903 112.231 0.420903H95.4292L95.9603 3.61363H111.029V3.52959H112.147C113.377 3.52959 115.194 3.64163 116.676 4.76188C118.13 5.88213 118.94 7.75854 118.94 9.69098C118.94 11.6514 118.102 13.5558 116.648 14.5921C115.055 15.7683 113.042 15.8244 112.147 15.8244H111.029V15.7684H97.9732L98.5044 18.9331H112.203C114.775 18.9331 116.788 18.681 118.968 17.1687C121.401 15.4603 122.687 12.7997 122.687 9.71901C122.631 6.61031 121.317 3.9217 119.08 2.21331ZM110.945 7.67454H96.6313L97.1625 10.8673H110.973V7.67454H110.945ZM125.762 18.9051H129.368V0.420903H125.762V18.9051ZM142.228 0.0288086H139.516L131.521 18.9051H135.435L137.056 15.0122H144.493L146.114 18.9051H150L142.228 0.0288086ZM138.202 12.0995L140.858 5.43404L143.458 12.0995H138.202ZM89.4185 0.0848417L84.1907 12.1835L79.1865 0.0848417H76.6984L73.2598 18.9051H76.922L78.7951 7.50651L83.6316 19.1571H84.638L89.6981 7.50651L91.3475 18.9051H95.0098L91.9066 0.0848417H89.4185Z" fill="#927398"/>
</svg>
